<?xml version="1.0" standalone="no"?>
<!DOCTYPE svg PUBLIC "-//W3C//DTD SVG 20010904//EN"
 "http://www.w3.org/TR/2001/REC-SVG-20010904/DTD/svg10.dtd">
<svg version="1.0" xmlns="http://www.w3.org/2000/svg"
 width="800.000000pt" height="396.000000pt" viewBox="0 0 800.000000 396.000000"
 preserveAspectRatio="xMidYMid meet">

<g transform="translate(0.000000,396.000000) scale(0.100000,-0.100000)"
fill="#BCA8D6" stroke="none">
<path d="M3941 3785 c-48 -15 -94 -53 -119 -100 -15 -27 -17 -95 -20 -657 l-3
-628 201 0 200 0 0 615 c0 672 1 656 -58 718 -53 56 -127 76 -201 52z"/>
<path d="M3341 3585 c-48 -15 -94 -53 -119 -100 -15 -27 -17 -88 -20 -557 l-3
-528 201 0 200 0 0 515 c0 562 1 557 -58 618 -53 56 -127 76 -201 52z"/>
<path d="M4541 3585 c-48 -15 -94 -53 -119 -100 -15 -27 -17 -88 -20 -557 l-3
-528 201 0 200 0 0 515 c0 562 1 557 -58 618 -53 56 -127 76 -201 52z"/>
<path d="M2751 3390 c-44 -11 -79 -38 -116 -89 l-30 -43 -3 -429 -3 -429 201
0 200 0 0 415 c0 453 -1 458 -58 518 -49 52 -122 74 -191 57z"/>
<path d="M5141 3385 c-48 -15 -94 -53 -119 -100 -15 -26 -17 -81 -20 -457 l-3
-428 201 0 200 0 0 415 c0 353 -2 421 -16 453 -41 100 -143 149 -243 117z"/>
<path d="M2141 3185 c-48 -15 -94 -53 -119 -100 -15 -26 -17 -75 -20 -357 l-3
-328 200 0 201 0 0 315 c0 263 -3 322 -16 353 -41 100 -143 149 -243 117z"/>
<path d="M5741 3185 c-48 -15 -94 -53 -119 -100 -15 -26 -17 -75 -20 -357 l-3
-328 200 0 201 0 0 315 c0 263 -3 322 -16 353 -41 100 -143 149 -243 117z"/>
<path d="M1536 2986 c-44 -16 -90 -57 -114 -101 -14 -25 -18 -69 -20 -257 l-4
-228 201 0 201 0 0 215 c0 235 -5 263 -58 318 -54 57 -137 78 -206 53z"/>
<path d="M6341 2985 c-48 -15 -94 -53 -119 -100 -14 -25 -18 -69 -20 -257 l-4
-228 201 0 201 0 0 215 c0 238 -5 263 -63 323 -19 19 -52 39 -81 47 -58 18
-58 18 -115 0z"/>
<path d="M975 2795 c-5 -2 -22 -6 -37 -9 -35 -8 -94 -59 -115 -100 -12 -22
-18 -66 -21 -158 l-4 -128 201 0 201 0 0 115 c0 76 -5 127 -14 148 -15 36 -71
98 -101 114 -22 12 -95 24 -110 18z"/>
<path d="M6938 2784 c-61 -19 -113 -78 -127 -146 -6 -27 -11 -92 -11 -143 l0
-95 200 0 200 0 0 115 c0 127 -11 169 -58 218 -54 57 -127 75 -204 51z"/>
<path d="M3900 2259 c-60 -25 -100 -85 -100 -149 0 -84 37 -118 177 -159 99
-30 124 -58 86 -96 -24 -25 -110 -16 -160 16 -21 14 -43 25 -49 24 -5 0 -25
-17 -44 -38 l-33 -39 28 -23 c75 -59 240 -80 319 -40 62 31 81 65 81 142 0 61
-2 66 -36 98 -26 23 -63 41 -122 59 -114 35 -136 57 -97 96 26 26 54 25 118
-5 30 -14 57 -25 62 -25 13 0 62 79 55 90 -3 5 -25 20 -48 32 -48 25 -194 35
-237 17z"/>
<path d="M1591 2179 c-183 -34 -228 -285 -67 -375 148 -83 335 14 336 174 0
137 -120 227 -269 201z m125 -113 c29 -29 34 -41 34 -80 0 -80 -36 -125 -103
-128 -43 -1 -74 16 -97 55 -23 38 -25 75 -6 121 18 44 52 66 99 66 31 0 46 -7
73 -34z"/>
<path d="M888 2164 c-58 -31 -77 -121 -35 -169 14 -16 52 -36 102 -53 71 -24
80 -30 80 -52 0 -43 -42 -49 -111 -15 l-57 28 -24 -29 c-12 -16 -22 -33 -20
-39 7 -24 98 -58 160 -58 103 -1 157 41 157 121 0 58 -36 95 -116 117 -67 19
-98 43 -88 68 10 26 47 26 108 0 l39 -17 23 29 c13 17 24 34 24 38 0 4 -19 17
-42 27 -53 24 -160 26 -200 4z"/>
<path d="M2032 2037 c3 -118 8 -150 24 -182 28 -53 82 -80 159 -79 75 1 128
25 157 73 21 32 23 51 27 184 l3 147 -56 0 -56 0 0 -138 c0 -125 -2 -140 -20
-160 -30 -32 -82 -30 -109 4 -19 24 -21 40 -21 160 l0 134 -56 0 -57 0 5 -143z"/>
<path d="M2640 1980 l0 -200 50 0 49 0 3 115 3 115 88 -115 88 -115 44 0 45 0
0 200 0 200 -50 0 -49 0 -3 -112 -3 -111 -85 111 -85 112 -47 0 -48 0 0 -200z"/>
<path d="M3240 1979 l0 -201 123 3 c138 4 166 15 220 82 61 75 43 212 -34 269
-52 38 -93 48 -205 48 l-104 0 0 -201z m235 91 c37 -35 49 -89 30 -137 -19
-49 -59 -73 -119 -73 l-46 0 0 121 0 121 55 -4 c40 -3 62 -11 80 -28z"/>
<path d="M4410 2140 l0 -40 60 0 60 0 0 -160 0 -160 55 0 55 0 0 160 0 160 60
0 60 0 0 40 0 40 -175 0 -175 0 0 -40z"/>
<path d="M5040 1980 l0 -200 50 0 50 0 0 65 c0 65 0 65 29 65 24 0 35 -10 71
-65 l42 -65 60 0 60 0 -46 65 c-25 36 -46 68 -46 69 0 2 15 19 34 38 68 68 57
165 -24 206 -38 19 -60 22 -162 22 l-118 0 0 -200z m224 104 c19 -18 21 -65 4
-82 -7 -7 -38 -12 -70 -12 l-58 0 0 55 0 55 54 0 c36 0 60 -5 70 -16z"/>
<path d="M5640 1980 l0 -200 160 0 160 0 0 40 0 40 -110 0 -110 0 0 40 0 40
95 0 95 0 0 40 0 40 -95 0 -95 0 0 40 0 40 110 0 110 0 0 40 0 40 -160 0 -160
0 0 -200z"/>
<path d="M6296 1993 c-43 -103 -80 -193 -83 -200 -4 -10 8 -13 46 -13 52 0 52
0 71 45 l19 45 75 0 75 0 20 -45 c20 -45 20 -45 72 -45 44 0 50 2 45 18 -4 9
-41 99 -84 199 l-77 183 -50 0 -50 0 -79 -187z m153 4 l20 -47 -44 0 c-43 0
-44 1 -35 25 6 14 15 37 20 51 13 32 13 31 39 -29z"/>
<path d="M6840 1980 l0 -200 50 0 49 0 3 116 3 117 44 -70 c24 -39 50 -70 58
-69 7 1 33 33 58 71 l45 68 0 -117 0 -116 50 0 50 0 0 200 0 200 -53 0 -53 0
-45 -75 c-24 -41 -47 -75 -51 -75 -3 0 -26 33 -50 73 l-44 72 -57 3 -57 3 0
-201z"/>
<path d="M353 2099 c-45 -13 -73 -57 -73 -112 0 -37 5 -51 31 -76 26 -26 38
-31 79 -31 41 0 53 5 79 31 26 26 31 38 31 79 0 41 -5 53 -31 79 -17 17 -37
31 -44 31 -7 0 -19 2 -27 4 -7 2 -27 0 -45 -5z"/>
<path d="M7563 2089 c-47 -14 -73 -52 -73 -110 0 -40 5 -52 31 -78 26 -26 38
-31 79 -31 41 0 53 5 79 31 26 26 31 38 31 81 0 41 -5 54 -29 79 -16 16 -36
29 -44 29 -9 0 -21 2 -29 4 -7 2 -27 0 -45 -5z"/>
<path d="M4410 1103 c0 -310 4 -522 10 -544 50 -180 286 -204 371 -37 18 35
19 66 19 563 l0 525 -200 0 -200 0 0 -507z"/>
<path d="M800 1493 c0 -122 11 -173 47 -221 39 -51 95 -75 168 -70 72 4 117
30 156 87 22 33 24 47 27 174 l4 137 -201 0 -201 0 0 -107z"/>
<path d="M1402 1373 c3 -214 4 -231 25 -270 61 -113 211 -140 305 -55 65 59
68 73 68 327 l0 225 -201 0 -200 0 3 -227z"/>
<path d="M2000 1293 c0 -176 4 -324 10 -344 25 -91 98 -149 186 -149 62 0 110
19 145 57 59 63 59 64 59 418 l0 325 -200 0 -200 0 0 -307z"/>
<path d="M2602 1173 c3 -421 3 -429 25 -470 13 -23 39 -54 60 -70 33 -25 44
-28 114 -28 86 0 108 10 163 79 l31 38 3 439 3 439 -201 0 -201 0 3 -427z"/>
<path d="M3202 1072 l3 -529 30 -49 c58 -93 159 -120 262 -69 38 20 56 36 76
74 l27 49 0 526 0 526 -200 0 -201 0 3 -528z"/>
<path d="M3802 973 l3 -628 24 -42 c80 -140 287 -133 352 12 17 37 19 80 19
663 l0 622 -200 0 -201 0 3 -627z"/>
<path d="M5602 1272 l3 -329 30 -49 c38 -61 93 -94 158 -94 84 0 151 40 188
112 18 34 19 62 19 363 l0 325 -201 0 -200 0 3 -328z"/>
<path d="M6202 1373 c3 -214 4 -231 25 -270 60 -112 206 -138 305 -55 61 52
68 82 68 330 l0 222 -201 0 -200 0 3 -227z"/>
<path d="M6801 1472 c4 -123 5 -131 34 -177 85 -138 287 -122 350 27 11 27 15
72 15 158 l0 120 -201 0 -201 0 3 -128z"/>
<path d="M5002 1163 l3 -428 28 -47 c65 -110 214 -133 305 -46 62 61 62 57 62
524 l0 424 -200 0 -201 0 3 -427z"/>
</g>
</svg>
